<svg width="188" height="188" viewBox="0 0 188 188" fill="none" xmlns="http://www.w3.org/2000/svg">
<path d="M175.11 87.8984C175.368 89.7889 175.505 91.7205 175.52 93.6501H170.155C170.141 91.9763 170.023 90.3023 169.801 88.6629L175.11 87.8984Z" fill="white" stroke="black" stroke-width="0.7"/>
<path d="M130.737 54.2327V48.868C150.28 49.0222 167.8 62.0807 173.542 80.7694L168.403 82.3036C163.333 65.8658 147.931 54.3866 130.737 54.2327Z" fill="white" stroke="black" stroke-width="0.7"/>
<mask id="path-3-inside-1" fill="white">
<path d="M130.387 36.3871C124.016 36.3871 117.903 37.4696 112.169 39.386C110.735 35.0863 108.819 31.0412 106.487 27.2903H131.639L137.704 21.2258H161.265C162.52 24.7463 165.855 27.2903 169.803 27.2903C174.819 27.2903 178.9 23.2089 178.9 18.1935C178.9 13.1782 174.819 9.09677 169.803 9.09677C165.855 9.09677 162.52 11.6408 161.265 15.1613H135.193L129.129 21.2258H102.193C91.4954 8.12948 75.2728 0 57.6129 0C25.8439 0 0 25.8439 0 57.6129C0 76.9466 9.60316 94.0455 24.2581 104.501V119.513L30.3226 125.578V143.074C26.8021 144.329 24.2581 147.665 24.2581 151.613C24.2581 156.628 28.3395 160.71 33.3548 160.71C38.3702 160.71 42.4516 156.628 42.4516 151.613C42.4516 147.665 39.9075 144.329 36.3871 143.074V123.067L30.3226 117.003V108.333C37.6091 112.269 45.8477 114.613 54.5806 115.071V152.171C51.0602 153.426 48.5161 156.762 48.5161 160.71C48.5161 165.725 52.5975 169.806 57.6129 169.806C62.6283 169.806 66.7097 165.725 66.7097 160.71C66.7097 156.762 64.1656 153.426 60.6452 152.171V115.095C64.7205 114.874 68.7746 114.231 72.7742 113.127V126.509L82.062 129.605L85.167 163.742H103.097V188H109.161V163.742H118.258C133.304 163.742 145.548 151.498 145.548 136.452V133.419H139.484V136.452C139.484 148.156 129.963 157.677 118.258 157.677H90.7039L87.7414 125.105L78.8387 122.136V94C78.8387 87.5898 80.0698 81.4737 82.2166 75.8065H107.906L119.977 87.8779C118.91 89.6821 118.258 91.7561 118.258 94C118.258 100.689 123.698 106.129 130.387 106.129C137.076 106.129 142.516 100.689 142.516 94C142.516 87.3108 137.076 81.871 130.387 81.871C128.143 81.871 126.069 82.5229 124.265 83.5903L110.417 69.7419H84.9275C93.621 53.5194 110.729 42.4516 130.387 42.4516C158.811 42.4516 181.935 65.5756 181.935 94V104.746C181.935 118.516 176.574 131.461 166.838 141.197L157.677 150.358V188H163.742V152.868L171.125 145.485C182.008 134.605 188 120.135 188 104.746V94C188 62.231 162.156 36.3871 130.387 36.3871V36.3871ZM169.806 15.1613C171.477 15.1613 172.839 16.5228 172.839 18.1935C172.839 19.8643 171.477 21.2258 169.806 21.2258C168.136 21.2258 166.774 19.8643 166.774 18.1935C166.774 16.5228 168.136 15.1613 169.806 15.1613ZM33.3548 154.645C31.6841 154.645 30.3226 153.284 30.3226 151.613C30.3226 149.942 31.6841 148.581 33.3548 148.581C35.0256 148.581 36.3871 149.942 36.3871 151.613C36.3871 153.284 35.0256 154.645 33.3548 154.645ZM136.452 94C136.452 97.3446 133.732 100.065 130.387 100.065C127.043 100.065 124.323 97.3446 124.323 94C124.323 90.6554 127.043 87.9355 130.387 87.9355C133.732 87.9355 136.452 90.6554 136.452 94ZM99.1882 27.2903H80.9006C78.6174 19.3792 75.4608 12.7961 71.6826 8.0749C82.7534 11.2406 92.4384 18.0419 99.1882 27.2903ZM78.2019 69.7419H74.0295L68.0226 63.735C68.5866 62.7768 69.0233 61.7459 69.3114 60.6452H78.7599C78.6841 63.7047 78.5234 66.743 78.2171 69.7116C78.2141 69.7207 78.208 69.7328 78.2019 69.7419V69.7419ZM57.6129 63.6774C54.2683 63.6774 51.5484 60.9575 51.5484 57.6129C51.5484 54.2683 54.2683 51.5484 57.6129 51.5484C60.9575 51.5484 63.6774 54.2683 63.6774 57.6129C63.6774 60.9575 60.9575 63.6774 57.6129 63.6774ZM78.772 54.5806H69.3114C67.9559 49.3652 63.2468 45.4839 57.6129 45.4839C51.979 45.4839 47.2699 49.3652 45.9145 54.5806H36.4538C36.6418 46.7332 37.5363 39.5952 38.9524 33.3548H76.2734C77.6895 39.5952 78.584 46.7332 78.772 54.5806V54.5806ZM6.21916 60.6452H30.3954C30.5743 68.2379 31.4112 75.388 32.803 81.871H12.1533C8.72987 75.479 6.6649 68.2774 6.21916 60.6452ZM6.21916 54.5806C6.66794 46.9485 8.72987 39.7468 12.1563 33.3548H32.803C31.4112 39.8378 30.5743 46.9879 30.3954 54.5806H6.21916ZM40.5565 27.2903C44.6834 13.9848 51.2815 6.06452 57.6129 6.06452C63.9443 6.06452 70.5425 13.9848 74.6694 27.2903H40.5565ZM43.5493 8.06277C39.765 12.784 36.6054 19.3731 34.3221 27.2903H16.0194C22.7237 18.1208 32.3512 11.2466 43.5493 8.06277V8.06277ZM16.0194 87.9355H34.3252C36.6085 95.8527 39.7681 102.439 43.5523 107.163C32.3512 103.979 22.7237 97.105 16.0194 87.9355V87.9355ZM57.6129 163.742C55.9421 163.742 54.5806 162.38 54.5806 160.71C54.5806 159.039 55.9421 157.677 57.6129 157.677C59.2837 157.677 60.6452 159.039 60.6452 160.71C60.6452 162.38 59.2837 163.742 57.6129 163.742ZM57.6129 109.161C51.2815 109.161 44.6834 101.241 40.5565 87.9355H73.1017C72.8894 89.9307 72.7742 91.9502 72.7742 94V106.784C67.7922 108.333 62.7071 109.161 57.6129 109.161ZM74.0841 81.871H38.9524C37.5363 75.6306 36.6418 68.4926 36.4538 60.6452H45.9145C47.2699 65.8606 51.979 69.7419 57.6129 69.7419C59.8568 69.7419 61.9308 69.09 63.735 68.0226L71.5188 75.8065H75.764C75.103 77.7865 74.5299 79.803 74.0841 81.871V81.871ZM84.8729 58.8106C84.8759 58.4104 84.9032 58.0132 84.9032 57.6129C84.9032 48.8861 84.0026 40.699 82.4259 33.3548H103.006C104.407 35.9747 105.583 38.7401 106.523 41.6268C97.9783 45.5354 90.5675 51.4605 84.8729 58.8106Z"/>
</mask>
<path d="M130.387 36.3871C124.016 36.3871 117.903 37.4696 112.169 39.386C110.735 35.0863 108.819 31.0412 106.487 27.2903H131.639L137.704 21.2258H161.265C162.52 24.7463 165.855 27.2903 169.803 27.2903C174.819 27.2903 178.9 23.2089 178.9 18.1935C178.9 13.1782 174.819 9.09677 169.803 9.09677C165.855 9.09677 162.52 11.6408 161.265 15.1613H135.193L129.129 21.2258H102.193C91.4954 8.12948 75.2728 0 57.6129 0C25.8439 0 0 25.8439 0 57.6129C0 76.9466 9.60316 94.0455 24.2581 104.501V119.513L30.3226 125.578V143.074C26.8021 144.329 24.2581 147.665 24.2581 151.613C24.2581 156.628 28.3395 160.71 33.3548 160.71C38.3702 160.71 42.4516 156.628 42.4516 151.613C42.4516 147.665 39.9075 144.329 36.3871 143.074V123.067L30.3226 117.003V108.333C37.6091 112.269 45.8477 114.613 54.5806 115.071V152.171C51.0602 153.426 48.5161 156.762 48.5161 160.71C48.5161 165.725 52.5975 169.806 57.6129 169.806C62.6283 169.806 66.7097 165.725 66.7097 160.71C66.7097 156.762 64.1656 153.426 60.6452 152.171V115.095C64.7205 114.874 68.7746 114.231 72.7742 113.127V126.509L82.062 129.605L85.167 163.742H103.097V188H109.161V163.742H118.258C133.304 163.742 145.548 151.498 145.548 136.452V133.419H139.484V136.452C139.484 148.156 129.963 157.677 118.258 157.677H90.7039L87.7414 125.105L78.8387 122.136V94C78.8387 87.5898 80.0698 81.4737 82.2166 75.8065H107.906L119.977 87.8779C118.91 89.6821 118.258 91.7561 118.258 94C118.258 100.689 123.698 106.129 130.387 106.129C137.076 106.129 142.516 100.689 142.516 94C142.516 87.3108 137.076 81.871 130.387 81.871C128.143 81.871 126.069 82.5229 124.265 83.5903L110.417 69.7419H84.9275C93.621 53.5194 110.729 42.4516 130.387 42.4516C158.811 42.4516 181.935 65.5756 181.935 94V104.746C181.935 118.516 176.574 131.461 166.838 141.197L157.677 150.358V188H163.742V152.868L171.125 145.485C182.008 134.605 188 120.135 188 104.746V94C188 62.231 162.156 36.3871 130.387 36.3871V36.3871ZM169.806 15.1613C171.477 15.1613 172.839 16.5228 172.839 18.1935C172.839 19.8643 171.477 21.2258 169.806 21.2258C168.136 21.2258 166.774 19.8643 166.774 18.1935C166.774 16.5228 168.136 15.1613 169.806 15.1613ZM33.3548 154.645C31.6841 154.645 30.3226 153.284 30.3226 151.613C30.3226 149.942 31.6841 148.581 33.3548 148.581C35.0256 148.581 36.3871 149.942 36.3871 151.613C36.3871 153.284 35.0256 154.645 33.3548 154.645ZM136.452 94C136.452 97.3446 133.732 100.065 130.387 100.065C127.043 100.065 124.323 97.3446 124.323 94C124.323 90.6554 127.043 87.9355 130.387 87.9355C133.732 87.9355 136.452 90.6554 136.452 94ZM99.1882 27.2903H80.9006C78.6174 19.3792 75.4608 12.7961 71.6826 8.0749C82.7534 11.2406 92.4384 18.0419 99.1882 27.2903ZM78.2019 69.7419H74.0295L68.0226 63.735C68.5866 62.7768 69.0233 61.7459 69.3114 60.6452H78.7599C78.6841 63.7047 78.5234 66.743 78.2171 69.7116C78.2141 69.7207 78.208 69.7328 78.2019 69.7419V69.7419ZM57.6129 63.6774C54.2683 63.6774 51.5484 60.9575 51.5484 57.6129C51.5484 54.2683 54.2683 51.5484 57.6129 51.5484C60.9575 51.5484 63.6774 54.2683 63.6774 57.6129C63.6774 60.9575 60.9575 63.6774 57.6129 63.6774ZM78.772 54.5806H69.3114C67.9559 49.3652 63.2468 45.4839 57.6129 45.4839C51.979 45.4839 47.2699 49.3652 45.9145 54.5806H36.4538C36.6418 46.7332 37.5363 39.5952 38.9524 33.3548H76.2734C77.6895 39.5952 78.584 46.7332 78.772 54.5806V54.5806ZM6.21916 60.6452H30.3954C30.5743 68.2379 31.4112 75.388 32.803 81.871H12.1533C8.72987 75.479 6.6649 68.2774 6.21916 60.6452ZM6.21916 54.5806C6.66794 46.9485 8.72987 39.7468 12.1563 33.3548H32.803C31.4112 39.8378 30.5743 46.9879 30.3954 54.5806H6.21916ZM40.5565 27.2903C44.6834 13.9848 51.2815 6.06452 57.6129 6.06452C63.9443 6.06452 70.5425 13.9848 74.6694 27.2903H40.5565ZM43.5493 8.06277C39.765 12.784 36.6054 19.3731 34.3221 27.2903H16.0194C22.7237 18.1208 32.3512 11.2466 43.5493 8.06277V8.06277ZM16.0194 87.9355H34.3252C36.6085 95.8527 39.7681 102.439 43.5523 107.163C32.3512 103.979 22.7237 97.105 16.0194 87.9355V87.9355ZM57.6129 163.742C55.9421 163.742 54.5806 162.38 54.5806 160.71C54.5806 159.039 55.9421 157.677 57.6129 157.677C59.2837 157.677 60.6452 159.039 60.6452 160.71C60.6452 162.38 59.2837 163.742 57.6129 163.742ZM57.6129 109.161C51.2815 109.161 44.6834 101.241 40.5565 87.9355H73.1017C72.8894 89.9307 72.7742 91.9502 72.7742 94V106.784C67.7922 108.333 62.7071 109.161 57.6129 109.161ZM74.0841 81.871H38.9524C37.5363 75.6306 36.6418 68.4926 36.4538 60.6452H45.9145C47.2699 65.8606 51.979 69.7419 57.6129 69.7419C59.8568 69.7419 61.9308 69.09 63.735 68.0226L71.5188 75.8065H75.764C75.103 77.7865 74.5299 79.803 74.0841 81.871V81.871ZM84.8729 58.8106C84.8759 58.4104 84.9032 58.0132 84.9032 57.6129C84.9032 48.8861 84.0026 40.699 82.4259 33.3548H103.006C104.407 35.9747 105.583 38.7401 106.523 41.6268C97.9783 45.5354 90.5675 51.4605 84.8729 58.8106Z" fill="white" stroke="black" stroke-width="1.4" mask="url(#path-3-inside-1)"/>
</svg>
