<svg width="202" height="202" viewBox="0 0 202 202" fill="none" xmlns="http://www.w3.org/2000/svg">
<path d="M110.779 78.6H111.258L111.113 78.1436C109.823 74.1024 108.237 70.8128 106.518 68.5257C104.809 66.2525 102.915 64.9 101 64.9C99.085 64.9 97.1906 66.2525 95.482 68.5257C93.7631 70.8128 92.1767 74.1024 90.8873 78.1436L90.7417 78.6H91.2207H110.779ZM112.78 84.6808L112.723 84.4H112.437H89.5633H89.2766L89.2201 84.681C88.4266 88.6292 87.8881 93.0161 87.7185 97.7374L87.7054 98.1H88.0682H113.932H114.295L114.282 97.7374C114.112 93.0163 113.577 88.6293 112.78 84.6808ZM120.079 97.7613L120.09 98.1H120.429H136.584V97.75L136.933 97.7186C136.509 93.0245 135.17 88.5969 133.116 84.5903L133.018 84.4H132.804H119.099H118.68L118.755 84.8126C119.483 88.8141 119.93 93.1648 120.079 97.7613ZM91.2207 123.4H90.7417L90.8873 123.856C92.1767 127.898 93.7631 131.187 95.482 133.474C97.1906 135.747 99.085 137.1 101 137.1C102.915 137.1 104.809 135.747 106.518 133.474C108.237 131.187 109.823 127.898 111.113 123.856L111.258 123.4H110.779H91.2207ZM89.2202 117.319L89.2768 117.6H89.5633H112.437H112.723L112.78 117.319C113.573 113.371 114.112 108.984 114.282 104.263L114.295 103.9H113.932H88.0682H87.7054L87.7185 104.263C87.8881 108.984 88.4233 113.371 89.2202 117.319ZM136.933 104.282L136.968 103.9H136.584H120.429V104.25L120.079 104.239C119.933 108.835 119.483 113.186 118.752 117.187L118.676 117.6H119.096H132.801H133.015L133.113 117.41C135.17 113.403 136.506 108.975 136.933 104.282ZM81.5715 98.1H81.9106L81.9213 97.7611C82.0671 93.1649 82.5172 88.8143 83.2483 84.8129L83.3237 84.4H82.904H69.1988H68.985L68.8874 84.5901C66.8298 88.597 65.4939 93.0246 65.0672 97.7183L65.0325 98.1H65.4158H81.5715ZM81.9213 104.239L81.9103 103.9H81.5715H65.4125H65.0292L65.0639 104.282C65.4906 108.976 66.8299 113.403 68.8841 117.41L68.9816 117.6H69.1955H82.9007H83.3202L83.2451 117.187C82.5173 113.186 82.0703 108.835 81.9213 104.239ZM73.4432 123.4H72.6993L73.1736 123.973C77.2664 128.919 82.6617 132.723 88.8109 134.938L89.7368 135.271L89.2294 134.428C87.4514 131.473 85.9349 127.84 84.7454 123.654L84.6731 123.4H84.4088H73.4432ZM112.771 134.428L112.263 135.271L113.189 134.938C119.338 132.723 124.734 128.919 128.826 123.973L129.301 123.4H128.557H117.591H117.327L117.255 123.654C116.065 127.84 114.549 131.473 112.771 134.428ZM128.557 78.6H129.301L128.826 78.0269C124.734 73.0807 119.338 69.2774 113.189 67.0625L112.263 66.729L112.771 67.5722C114.549 70.5269 116.065 74.1597 117.255 78.3457L117.327 78.6H117.591H128.557ZM84.4088 78.6H84.6731L84.7454 78.3457C85.9349 74.1597 87.4514 70.5269 89.2294 67.5722L88.9295 67.3918L88.8109 67.0625C82.6617 69.2774 77.2664 73.0807 73.1736 78.0269L72.6993 78.6H73.4432H84.4088ZM142.9 101C142.9 124.103 124.103 142.9 101 142.9C77.8973 142.9 59.1 124.103 59.1 101C59.1 77.8973 77.8973 59.1 101 59.1C124.103 59.1 142.9 77.8973 142.9 101Z" fill="white" stroke="black" stroke-width="0.7"/>
<path d="M162.75 51.9C157.685 51.9 153.541 47.8708 153.356 42.85H159.167C159.343 44.6734 160.884 46.1 162.75 46.1H169.25C171.234 46.1 172.85 44.4875 172.85 42.5C172.85 40.5125 171.234 38.9 169.25 38.9H162.75C157.568 38.9 153.35 34.6822 153.35 29.5C153.35 24.3178 157.568 20.1 162.75 20.1H163.1V19.75V13.6H168.9V19.75V20.1H169.25C174.315 20.1 178.459 24.1292 178.644 29.15H172.833C172.657 27.3266 171.116 25.9 169.25 25.9H162.75C160.766 25.9 159.15 27.5125 159.15 29.5C159.15 31.4875 160.766 33.1 162.75 33.1H169.25C174.432 33.1 178.65 37.3178 178.65 42.5C178.65 47.6822 174.432 51.9 169.25 51.9H168.9V52.25V58.4H163.1V52.25V51.9H162.75Z" fill="white" stroke="black" stroke-width="0.7"/>
<path d="M201.4 36C201.4 55.518 185.518 71.4 166 71.4C146.482 71.4 130.6 55.518 130.6 36C130.6 16.482 146.482 0.6 166 0.6C185.518 0.6 201.4 16.482 201.4 36ZM195.6 36C195.6 19.6769 182.32 6.4 166 6.4C149.68 6.4 136.4 19.6769 136.4 36C136.4 52.3231 149.68 65.6 166 65.6C182.32 65.6 195.6 52.3231 195.6 36Z" fill="white" stroke="black" stroke-width="0.7"/>
<path d="M181.362 144.041L181.026 143.312C180.152 141.42 178.657 139.838 176.705 138.86L181.362 144.041ZM181.362 144.041L181.667 143.299M181.362 144.041L181.667 143.299M181.667 143.299C182.261 141.853 182.6 140.307 182.6 138.716C182.6 132.062 177.188 126.65 170.531 126.65H161.466C154.812 126.65 149.4 132.062 149.4 138.716C149.4 140.31 149.739 141.853 150.333 143.299L150.638 144.041M181.667 143.299L150.638 144.041M150.638 144.041L150.974 143.312M150.638 144.041L150.974 143.312M150.974 143.312C151.848 141.42 153.343 139.838 155.295 138.86L150.974 143.312ZM181.959 153.791L181.9 153.879V153.985V156.25C181.9 159.593 180.573 162.616 178.443 164.883L178.698 165.122L178.573 165.449C191.898 170.538 201.4 183.415 201.4 198.5V201.4H130.6V198.5C130.6 183.415 140.102 170.538 153.427 165.449L153.915 165.263L153.557 164.883C151.427 162.616 150.1 159.593 150.1 156.25V153.985V153.879L150.041 153.791L146.6 148.626C146.6 148.626 146.6 148.626 146.6 148.626C144.639 145.684 143.6 142.255 143.6 138.716C143.6 128.867 151.617 120.85 161.469 120.85H170.534C180.383 120.85 188.4 128.867 188.4 138.716C188.4 142.258 187.361 145.684 185.4 148.63L181.959 153.791ZM166 133.508L176.705 138.86H155.295L166 133.508ZM157.891 144.045L157.89 144.045C156.664 144.66 155.9 145.896 155.9 147.267V156.25C155.9 160.028 158.972 163.1 162.75 163.1H169.25C173.028 163.1 176.1 160.028 176.1 156.25V147.267C176.1 145.896 175.336 144.663 174.11 144.049L174.109 144.048L166.157 140.07L166 139.992L165.844 140.07L157.891 144.045ZM136.581 195.211L136.538 195.6H136.929H195.071H195.462L195.419 195.211C193.778 180.431 181.212 168.9 166 168.9C150.788 168.9 138.222 180.431 136.581 195.211Z" fill="white" stroke="black" stroke-width="0.7"/>
<path d="M47.173 138.34L47.3007 138.722L47.6615 138.542L54.9564 134.894L67.1056 147.044L63.455 154.345L63.2744 154.706L63.6574 154.834L71.4 157.412V174.591L63.6542 177.17L63.2711 177.297L63.4517 177.658L67.1023 184.956L54.9531 197.106L47.6583 193.458L47.2974 193.278L47.1697 193.66L44.5878 201.4H27.409L24.827 193.657L24.6994 193.274L24.3385 193.455L17.0436 197.102L4.8944 184.953L8.54502 177.655L8.72564 177.294L8.3426 177.166L0.6 174.588V157.409L8.3426 154.83L8.72564 154.703L8.54502 154.342L4.8944 147.044L17.0436 134.894L24.3385 138.542L24.6993 138.722L24.827 138.34L27.409 130.6H44.591L47.173 138.34ZM65.6 161.843V161.591L65.3607 161.511L58.0534 159.074L57.5662 157.784L57.5661 157.784C57.4086 157.367 57.2435 156.954 57.061 156.546L57.0609 156.546L56.4982 155.29L59.9373 148.412L60.0501 148.186L59.8717 148.008L53.9925 142.128L53.8141 141.95L53.5885 142.063L46.7103 145.502L45.4544 144.939L45.4532 144.939C45.042 144.756 44.6224 144.591 44.2069 144.429L44.2047 144.428L42.9259 143.938L40.492 136.639L40.4122 136.4H40.16H31.8432H31.5911L31.5113 136.639L29.0741 143.938L27.7952 144.428L27.7932 144.429L27.7542 144.444C27.3528 144.601 26.9481 144.759 26.5457 144.939L26.6779 145.234L26.5456 144.939L25.2897 145.502L18.4115 142.063L18.1859 141.95L18.0075 142.128L12.1283 148.008L11.9498 148.186L12.0628 148.412L15.505 155.287L14.9423 156.542L14.9422 156.543C14.7598 156.951 14.5946 157.364 14.4371 157.781L14.4371 157.781L13.9499 159.071L6.63932 161.508L6.4 161.588V161.84V170.157V170.409L6.63928 170.489L13.9466 172.926L14.4338 174.216L14.4339 174.216C14.5913 174.633 14.7565 175.046 14.939 175.454L14.9391 175.454L15.5018 176.71L12.0627 183.588L11.9499 183.814L12.1283 183.992L18.0075 189.872L18.1859 190.05L18.4115 189.937L25.2897 186.498L26.5456 187.061L26.5468 187.061C26.958 187.244 27.3776 187.409 27.7931 187.571L27.7953 187.572L29.0741 188.062L31.508 195.361L31.5878 195.6H31.84H40.1567H40.4089L40.4888 195.361L42.9227 188.065L44.2015 187.575L44.2036 187.575L44.2426 187.559C44.644 187.402 45.0487 187.244 45.4511 187.064L46.707 186.501L53.5852 189.941L53.8109 190.053L53.9892 189.875L59.8685 183.996L60.0469 183.817L59.934 183.592L56.495 176.714L57.0577 175.458L57.0578 175.457C57.2402 175.049 57.4054 174.636 57.5629 174.219L57.5629 174.219L58.0501 172.929L65.3607 170.492L65.6 170.412V170.16V161.843Z" fill="white" stroke="black" stroke-width="0.7"/>
<path d="M20.1 166C20.1 157.233 27.233 150.1 36 150.1C44.767 150.1 51.9 157.233 51.9 166C51.9 174.767 44.767 181.9 36 181.9C27.233 181.9 20.1 174.767 20.1 166ZM25.9 166C25.9 171.569 30.4312 176.1 36 176.1C41.5688 176.1 46.1 171.569 46.1 166C46.1 160.431 41.5688 155.9 36 155.9C30.4312 155.9 25.9 160.431 25.9 166Z" fill="white" stroke="black" stroke-width="0.7"/>
<path d="M26.25 6.4H25.9V6.75V13.25V13.6H26.25H39.25H39.6V13.25V6.75V6.4H39.25H26.25ZM58.75 52.6H59.1V52.25V6.75V6.4H58.75H45.75H45.4V6.75V19.4H20.1V6.75V6.4H19.75H6.75H6.4V6.75V52.25V52.6H6.75H58.75ZM0.6 0.6H64.9V58.4H0.6V0.6Z" fill="white" stroke="black" stroke-width="0.7"/>
<path d="M163.1 78.6H168.9V113.65H163.1V78.6Z" fill="white" stroke="black" stroke-width="0.7"/>
<path d="M72.1 33.1H123.4V38.9H72.1V33.1Z" fill="white" stroke="black" stroke-width="0.7"/>
<path d="M33.1 65.6H38.9V123.4H33.1V65.6Z" fill="white" stroke="black" stroke-width="0.7"/>
<path d="M78.6 163.1H136.4V168.9H78.6V163.1Z" fill="white" stroke="black" stroke-width="0.7"/>
</svg>
