<svg width="186" height="194" viewBox="0 0 186 194" fill="none" xmlns="http://www.w3.org/2000/svg">
<mask id="path-1-inside-1" fill="white">
<path d="M105.526 14.1064C106.68 14.2936 107.844 14.5095 108.985 14.7487C110.413 15.0483 111.871 14.0781 112.168 12.5338C112.461 11.0038 111.513 9.51447 110.048 9.20779C108.83 8.95235 107.587 8.72178 106.355 8.52209C104.88 8.28248 103.497 9.3389 103.268 10.881C103.039 12.423 104.05 13.8675 105.526 14.1064V14.1064ZM91.5217 13.1238L91.605 13.1223C92.7516 13.1 93.8934 13.1031 95.0292 13.1317C96.5151 13.1694 97.7611 11.9445 97.7972 10.3742C97.8329 8.81408 96.6513 7.51917 95.1583 7.48187C93.9623 7.45173 92.7043 7.44797 91.5249 7.47132C89.9901 7.50146 88.7227 8.74287 88.7577 10.3625C88.7912 11.9223 90.0286 13.1471 91.5217 13.1238V13.1238ZM94.5349 181.468H94.5262C93.3627 181.491 92.1945 181.487 91.0414 181.457C89.5513 181.436 88.3081 182.652 88.2713 184.212C88.2342 185.772 89.415 187.068 90.908 187.106C92.1437 187.138 93.3872 187.143 94.6261 187.118V187.118C96.1451 187.1 97.3588 185.792 97.3076 184.198C97.2574 182.646 96.0182 181.412 94.5349 181.468ZM77.5487 14.6696C78.6956 14.436 79.8606 14.2258 81.0108 14.0461C82.488 13.8151 83.5058 12.3767 83.2848 10.8335C83.0638 9.2903 81.689 8.22634 80.21 8.45729C78.9816 8.64944 77.738 8.87323 76.5132 9.12302C75.0475 9.42179 74.091 10.9054 74.3769 12.4373C74.6646 13.979 76.1115 14.9624 77.5487 14.6696V14.6696ZM108.524 179.933C107.381 180.165 106.216 180.374 105.06 180.554C103.583 180.784 102.564 182.223 102.785 183.766C102.986 185.168 104.139 186.175 105.456 186.175C106.817 186.175 108.234 185.748 109.555 185.48C111.021 185.183 111.979 183.7 111.694 182.168C111.409 180.636 109.989 179.634 108.524 179.933ZM80.546 180.474C79.3944 180.286 78.2305 180.069 77.0868 179.829C75.6237 179.521 74.1973 180.512 73.9024 182.041C73.6078 183.572 74.5561 185.061 76.0203 185.369C77.2412 185.626 78.4833 185.857 79.7124 186.058C81.1557 186.293 82.5691 185.254 82.8009 183.701C83.031 182.16 82.0218 180.715 80.546 180.474V180.474ZM175.807 87.0413C177.284 86.8092 178.301 85.3697 178.079 83.8268C177.893 82.5395 177.678 81.2404 177.44 79.9658C177.154 78.4347 175.735 77.4356 174.268 77.7343C172.802 78.0338 171.846 79.5179 172.132 81.0498C172.355 82.2441 172.557 83.461 172.731 84.6681C172.954 86.2192 174.356 87.2696 175.807 87.0413V87.0413ZM179.014 99.5824C179.045 98.272 179.049 96.9733 179.027 95.6573C178.999 94.0524 177.801 92.7266 176.264 92.7605C174.736 92.794 173.592 94.1699 173.619 95.7677C173.641 96.9926 173.637 98.2212 173.608 99.4426C173.571 101.003 174.751 102.298 176.244 102.338C177.73 102.376 178.977 101.155 179.014 99.5824V99.5824ZM174.16 117.351C175.588 117.652 177.048 116.682 177.346 115.14C177.592 113.867 177.814 112.568 178.007 111.281C178.237 109.74 177.228 108.294 175.753 108.053C174.277 107.813 172.894 108.867 172.663 110.409C172.483 111.614 172.274 112.83 172.044 114.022C171.749 115.552 172.696 117.042 174.16 117.351V117.351ZM7.1151 95.0752C7.08518 96.3694 7.08193 97.6387 7.10501 98.9442L7.10573 98.9867C7.13097 100.531 8.33667 101.765 9.80882 101.765C11.3188 101.765 12.5397 100.469 12.5134 98.891L12.5119 98.8221C12.4914 97.6191 12.4946 96.4105 12.522 95.2105C12.5584 93.6244 11.3351 92.317 9.81747 92.317C8.35398 92.3174 7.15044 93.5381 7.1151 95.0752V95.0752ZM150.096 120.031C148.645 120.031 147.214 120.125 145.808 120.304C148.658 113.104 150.214 105.114 150.214 97.2951C150.214 89.3828 148.699 81.5298 145.806 74.2802C147.213 74.4596 148.643 74.5598 150.096 74.5598C169.443 74.5598 185.368 57.9411 185.368 37.7029C185.368 30.6753 183.468 23.8406 179.873 17.938C179.071 16.6216 177.4 16.2347 176.14 17.0714C174.879 17.9093 174.508 19.6556 175.31 20.9724C178.352 25.9666 179.96 31.7517 179.96 37.7026C179.96 45.3511 177.308 52.3617 172.921 57.7949C171.068 51.933 167.17 46.8995 162.025 43.8C163.308 41.5952 164.048 39.0088 164.048 36.2453V31.7623C164.048 23.7234 157.789 17.1833 150.096 17.1833C142.402 17.1833 136.143 23.7234 136.143 31.7623V36.2453C136.143 39.0084 136.883 41.5944 138.166 43.7988C133.02 46.8984 129.122 51.9322 127.27 57.7945C122.883 52.3617 120.232 45.3511 120.232 37.7026C120.232 20.4958 133.629 6.49703 150.096 6.49703C156.29 6.49703 162.23 8.45993 167.275 12.1732C168.496 13.0725 170.182 12.7666 171.043 11.4906C171.903 10.2149 171.61 8.4524 170.389 7.55346C164.429 3.16501 157.411 0.845703 150.096 0.845703C130.647 0.845703 114.824 17.3796 114.824 37.7026C114.824 39.2198 114.915 40.7151 115.086 42.1848C108.093 39.1655 100.666 37.5794 93.0656 37.5794C85.4954 37.5794 77.9817 39.1621 71.045 42.1841C71.2163 40.7147 71.3075 39.2198 71.3075 37.7026C71.3075 17.3796 55.4845 0.845703 36.0353 0.845703C16.5862 0.845703 0.763184 17.3796 0.763184 37.7026C0.763184 57.8887 16.8404 74.5594 36.0353 74.5594C37.4884 74.5594 38.9187 74.4592 40.3259 74.2799C37.4328 81.5298 35.9174 89.3828 35.9174 97.2951C35.9174 105.153 37.4779 113.144 40.3241 120.304C38.918 120.125 37.4869 120.03 36.0353 120.03C16.5862 120.031 0.763184 136.564 0.763184 156.888C0.763184 177.22 16.8314 193.744 36.0353 193.744C55.3493 193.744 71.3075 177.106 71.3075 156.888C71.3075 155.371 71.2173 153.876 71.0464 152.407C77.9828 155.428 85.4961 157.011 93.0656 157.011C100.635 157.011 108.148 155.428 115.085 152.407C114.914 153.876 114.824 155.371 114.824 156.888C114.824 177.223 130.887 193.744 150.096 193.744C169.303 193.744 185.368 177.227 185.368 156.888C185.368 136.564 169.545 120.031 150.096 120.031ZM141.552 31.7623C141.552 26.8396 145.384 22.8347 150.096 22.8347C154.807 22.8347 158.64 26.8396 158.64 31.7623V36.2453C158.64 41.168 154.807 45.1729 150.096 45.1729C145.384 45.1729 141.552 41.168 141.552 36.2453V31.7623ZM141.967 48.0829C144.258 49.8054 147.064 50.8242 150.096 50.8242C153.127 50.8242 155.933 49.8058 158.224 48.0837C163.58 50.8167 167.429 56.1651 168.443 62.2979C163.376 66.4343 157.009 68.9081 150.096 68.9081C143.183 68.9081 136.817 66.4343 131.75 62.2983C132.761 56.1651 136.609 50.8163 141.967 48.0829V48.0829ZM111.021 46.5887C112.914 47.3189 114.763 48.1677 116.561 49.125C120.064 60.3361 128.582 69.1006 139.169 72.7472C142.856 80.2944 144.805 88.7552 144.805 97.2951C144.805 98.9875 144.728 100.677 144.577 102.357C139.793 104.337 129.679 108.034 127.092 105.111C126.075 103.963 126.738 101.438 127.905 97.4126C129.412 92.21 131.289 85.7359 129.299 78.2467C126.619 68.1542 118.566 63.1682 112.686 59.5276C108.932 57.2034 105.691 55.1964 105.791 53.2302C105.862 51.8576 107.299 49.3597 111.021 46.5887V46.5887ZM13.2103 57.7949C8.82306 52.3617 6.17153 45.3511 6.17153 37.7026C6.17153 20.4958 19.5684 6.49703 36.0353 6.49703C52.5023 6.49703 65.8991 20.4958 65.8991 37.7026C65.8991 45.3511 63.2476 52.3614 58.8607 57.7945C57.0089 51.9322 53.1109 46.8984 47.9651 43.7988C49.2483 41.5944 49.9878 39.0084 49.9878 36.2453V31.7623C49.9878 23.7234 43.7289 17.1833 36.0353 17.1833C28.3418 17.1833 22.0829 23.7234 22.0829 31.7623V36.2453C22.0829 39.0088 22.8227 41.5952 24.106 43.8C18.9615 46.8995 15.0636 51.933 13.2103 57.7949V57.7949ZM44.5794 31.7623V36.2453C44.5794 41.168 40.7467 45.1729 36.0353 45.1729C31.3239 45.1729 27.4912 41.168 27.4912 36.2453V31.7623C27.4912 26.8396 31.3239 22.8347 36.0353 22.8347C40.7467 22.8347 44.5794 26.8392 44.5794 31.7623ZM36.0353 68.9081C29.122 68.9081 22.7553 66.4339 17.6884 62.2979C18.7023 56.1651 22.5509 50.8167 27.9073 48.0837C30.1979 49.8058 33.0041 50.8242 36.0353 50.8242C39.0669 50.8242 41.8735 49.8054 44.1644 48.0829C49.5223 50.8159 53.3705 56.1651 54.3815 62.2983C49.315 66.4343 42.9483 68.9081 36.0353 68.9081V68.9081ZM36.0353 188.093C29.122 188.093 22.7553 185.619 17.6884 181.483C18.7027 175.348 22.5516 169.999 27.9087 167.27C30.1994 168.991 33.0049 170.009 36.0353 170.009C39.0658 170.009 41.8717 168.991 44.1623 167.269C49.5212 170.001 53.3698 175.349 54.3815 181.484C49.3146 185.619 42.9483 188.093 36.0353 188.093V188.093ZM27.4912 155.43V150.948C27.4912 146.025 31.3239 142.02 36.0353 142.02C40.7467 142.02 44.5794 146.025 44.5794 150.948V155.43C44.5794 160.353 40.7467 164.358 36.0353 164.358C31.3239 164.358 27.4912 160.353 27.4912 155.43ZM58.8607 176.98C57.0089 171.117 53.1106 166.084 47.964 162.986C49.2476 160.781 49.9878 158.194 49.9878 155.43V150.948C49.9878 142.908 43.7289 136.368 36.0353 136.368C28.3418 136.368 22.0829 142.908 22.0829 150.947V155.43C22.0829 158.194 22.8231 160.781 24.107 162.986C18.9615 166.083 15.0632 171.116 13.2099 176.98C8.82306 171.547 6.17153 164.536 6.17153 156.888C6.17153 139.681 19.5684 125.682 36.0353 125.682C52.5023 125.682 65.8991 139.681 65.8991 156.888C65.8991 164.536 63.2476 171.546 58.8607 176.98V176.98ZM116.558 145.47C109.335 149.323 101.238 151.359 93.0656 151.359C84.8929 151.359 76.7962 149.323 69.5728 145.47C68.5633 142.24 67.1391 139.206 65.3641 136.435C71.7149 134.742 76.4321 133.777 79.6515 135.161C82.0409 136.189 83.1186 137.704 84.3668 139.459C85.8429 141.535 87.5159 143.888 91.1402 145.136C92.832 145.72 94.408 145.948 95.9227 145.948C98.5453 145.948 100.983 145.263 103.508 144.554C105.213 144.075 106.976 143.58 109.024 143.2C111.751 142.69 114.599 142.545 117.524 142.75C117.168 143.639 116.847 144.547 116.558 145.47V145.47ZM108.075 137.636C105.799 138.059 103.836 138.61 102.104 139.096C98.3791 140.142 95.9194 140.833 92.8341 139.769C90.8352 139.081 89.9425 137.826 88.7072 136.088C87.2725 134.071 85.4867 131.559 81.7074 129.934C76.1032 127.524 68.9859 129.694 61.633 131.557C57.6366 127.15 52.6115 123.772 46.9642 121.844C45.0089 117.841 43.5399 113.583 42.5949 109.189C46.5207 110.723 51.5508 112.198 57.3186 112.198C59.1037 112.198 61.0695 111.538 61.0039 109.271C60.9588 107.712 59.7109 106.481 58.2189 106.532C51.4094 106.74 45.6903 104.502 41.5868 102.674C41.4163 100.889 41.3254 99.0937 41.3254 97.2947C41.3254 88.7548 43.2746 80.294 46.9616 72.7468C55.3056 69.8752 62.5337 63.6885 66.8131 55.6874C73.9586 55.9775 79.4002 57.8318 80.2904 60.3629C80.7036 61.5387 80.0055 63.0556 78.8326 65.434C77.2285 68.6865 75.2321 72.734 76.4544 78.0124C77.3868 82.0482 79.6691 84.1652 81.3349 85.711C82.7613 87.0342 83.4532 87.7263 83.6035 88.9899C84.1278 93.3893 77.8191 100.027 69.54 103.787C68.1703 104.409 67.5425 106.073 68.1378 107.504C68.74 108.953 70.3531 109.579 71.6958 108.97C76.4706 106.801 80.8334 103.73 83.9803 100.323C87.7027 96.2929 89.428 92.1324 88.9704 88.2925C88.5626 84.8591 86.546 82.9882 84.9257 81.4849C83.4878 80.1508 82.246 78.9987 81.711 76.6847C80.9624 73.4517 82.263 70.8148 83.6399 68.0235C85.0371 65.191 86.6203 61.9811 85.367 58.4147C84.2987 55.3769 81.5411 53.1119 77.1712 51.6817C74.5597 50.8268 71.7437 50.3894 69.2245 50.1766C69.3453 49.8273 69.4607 49.475 69.5714 49.1209C76.7955 45.2674 84.8925 43.2307 93.0656 43.2307C97.0184 43.2307 100.952 43.7118 104.78 44.6386C102.056 47.3569 100.53 50.2052 100.391 52.9299C100.116 58.3141 104.883 61.2652 109.929 64.39C115.582 67.8901 121.99 71.8573 124.088 79.7586C125.658 85.668 124.102 91.0376 122.729 95.7753C121.299 100.707 119.949 105.366 123.122 108.949C124.81 110.856 127.266 111.813 130.588 111.813C133.99 111.813 138.304 110.804 143.623 108.789C142.682 113.325 141.181 117.72 139.166 121.845C131.253 124.546 124.563 130.097 120.212 137.332C116.034 136.809 111.959 136.911 108.075 137.636V137.636ZM150.096 188.093C143.183 188.093 136.817 185.619 131.75 181.484C132.761 175.349 136.61 170.001 141.969 167.269C144.26 168.991 147.065 170.009 150.096 170.009C153.126 170.009 155.932 168.991 158.222 167.27C163.58 169.999 167.429 175.348 168.443 181.483C163.376 185.619 157.009 188.093 150.096 188.093V188.093ZM141.552 155.43V150.948C141.552 146.025 145.384 142.02 150.096 142.02C154.807 142.02 158.64 146.025 158.64 150.948V155.43C158.64 160.353 154.807 164.358 150.096 164.358C145.384 164.358 141.552 160.353 141.552 155.43ZM172.921 176.98C171.068 171.116 167.17 166.083 162.024 162.986C163.308 160.781 164.048 158.194 164.048 155.43V150.947C164.048 142.908 157.789 136.368 150.096 136.368C142.402 136.368 136.143 142.908 136.143 150.947V155.43C136.143 158.194 136.883 160.781 138.167 162.985C133.021 166.083 129.122 171.117 127.271 176.979C122.884 171.546 120.232 164.536 120.232 156.887C120.232 139.68 133.629 125.682 150.096 125.682C166.563 125.682 179.96 139.681 179.96 156.888C179.96 164.536 177.308 171.547 172.921 176.98V176.98ZM11.957 77.3037C10.4924 76.9948 9.06716 77.9871 8.77294 79.5168C8.52812 80.7891 8.30674 82.0874 8.11493 83.3755C7.88525 84.9175 8.89553 86.362 10.3709 86.602C11.8139 86.8371 13.2273 85.7984 13.4587 84.2443C13.6386 83.0379 13.846 81.8217 14.0749 80.6304C14.3695 79.1004 13.4212 77.6111 11.957 77.3037V77.3037ZM10.3172 107.483C8.84037 107.714 7.8218 109.153 8.04282 110.696C8.2267 111.982 8.44087 113.281 8.67848 114.558C8.96584 116.1 10.412 117.085 11.8492 116.792C13.3152 116.494 14.2725 115.011 13.9869 113.479C13.7641 112.282 13.5637 111.065 13.3913 109.86C13.1706 108.317 11.7966 107.255 10.3172 107.483V107.483Z"/>
</mask>
<path d="M105.526 14.1064C106.68 14.2936 107.844 14.5095 108.985 14.7487C110.413 15.0483 111.871 14.0781 112.168 12.5338C112.461 11.0038 111.513 9.51447 110.048 9.20779C108.83 8.95235 107.587 8.72178 106.355 8.52209C104.88 8.28248 103.497 9.3389 103.268 10.881C103.039 12.423 104.05 13.8675 105.526 14.1064V14.1064ZM91.5217 13.1238L91.605 13.1223C92.7516 13.1 93.8934 13.1031 95.0292 13.1317C96.5151 13.1694 97.7611 11.9445 97.7972 10.3742C97.8329 8.81408 96.6513 7.51917 95.1583 7.48187C93.9623 7.45173 92.7043 7.44797 91.5249 7.47132C89.9901 7.50146 88.7227 8.74287 88.7577 10.3625C88.7912 11.9223 90.0286 13.1471 91.5217 13.1238V13.1238ZM94.5349 181.468H94.5262C93.3627 181.491 92.1945 181.487 91.0414 181.457C89.5513 181.436 88.3081 182.652 88.2713 184.212C88.2342 185.772 89.415 187.068 90.908 187.106C92.1437 187.138 93.3872 187.143 94.6261 187.118V187.118C96.1451 187.1 97.3588 185.792 97.3076 184.198C97.2574 182.646 96.0182 181.412 94.5349 181.468ZM77.5487 14.6696C78.6956 14.436 79.8606 14.2258 81.0108 14.0461C82.488 13.8151 83.5058 12.3767 83.2848 10.8335C83.0638 9.2903 81.689 8.22634 80.21 8.45729C78.9816 8.64944 77.738 8.87323 76.5132 9.12302C75.0475 9.42179 74.091 10.9054 74.3769 12.4373C74.6646 13.979 76.1115 14.9624 77.5487 14.6696V14.6696ZM108.524 179.933C107.381 180.165 106.216 180.374 105.06 180.554C103.583 180.784 102.564 182.223 102.785 183.766C102.986 185.168 104.139 186.175 105.456 186.175C106.817 186.175 108.234 185.748 109.555 185.48C111.021 185.183 111.979 183.7 111.694 182.168C111.409 180.636 109.989 179.634 108.524 179.933ZM80.546 180.474C79.3944 180.286 78.2305 180.069 77.0868 179.829C75.6237 179.521 74.1973 180.512 73.9024 182.041C73.6078 183.572 74.5561 185.061 76.0203 185.369C77.2412 185.626 78.4833 185.857 79.7124 186.058C81.1557 186.293 82.5691 185.254 82.8009 183.701C83.031 182.16 82.0218 180.715 80.546 180.474V180.474ZM175.807 87.0413C177.284 86.8092 178.301 85.3697 178.079 83.8268C177.893 82.5395 177.678 81.2404 177.44 79.9658C177.154 78.4347 175.735 77.4356 174.268 77.7343C172.802 78.0338 171.846 79.5179 172.132 81.0498C172.355 82.2441 172.557 83.461 172.731 84.6681C172.954 86.2192 174.356 87.2696 175.807 87.0413V87.0413ZM179.014 99.5824C179.045 98.272 179.049 96.9733 179.027 95.6573C178.999 94.0524 177.801 92.7266 176.264 92.7605C174.736 92.794 173.592 94.1699 173.619 95.7677C173.641 96.9926 173.637 98.2212 173.608 99.4426C173.571 101.003 174.751 102.298 176.244 102.338C177.73 102.376 178.977 101.155 179.014 99.5824V99.5824ZM174.16 117.351C175.588 117.652 177.048 116.682 177.346 115.14C177.592 113.867 177.814 112.568 178.007 111.281C178.237 109.74 177.228 108.294 175.753 108.053C174.277 107.813 172.894 108.867 172.663 110.409C172.483 111.614 172.274 112.83 172.044 114.022C171.749 115.552 172.696 117.042 174.16 117.351V117.351ZM7.1151 95.0752C7.08518 96.3694 7.08193 97.6387 7.10501 98.9442L7.10573 98.9867C7.13097 100.531 8.33667 101.765 9.80882 101.765C11.3188 101.765 12.5397 100.469 12.5134 98.891L12.5119 98.8221C12.4914 97.6191 12.4946 96.4105 12.522 95.2105C12.5584 93.6244 11.3351 92.317 9.81747 92.317C8.35398 92.3174 7.15044 93.5381 7.1151 95.0752V95.0752ZM150.096 120.031C148.645 120.031 147.214 120.125 145.808 120.304C148.658 113.104 150.214 105.114 150.214 97.2951C150.214 89.3828 148.699 81.5298 145.806 74.2802C147.213 74.4596 148.643 74.5598 150.096 74.5598C169.443 74.5598 185.368 57.9411 185.368 37.7029C185.368 30.6753 183.468 23.8406 179.873 17.938C179.071 16.6216 177.4 16.2347 176.14 17.0714C174.879 17.9093 174.508 19.6556 175.31 20.9724C178.352 25.9666 179.96 31.7517 179.96 37.7026C179.96 45.3511 177.308 52.3617 172.921 57.7949C171.068 51.933 167.17 46.8995 162.025 43.8C163.308 41.5952 164.048 39.0088 164.048 36.2453V31.7623C164.048 23.7234 157.789 17.1833 150.096 17.1833C142.402 17.1833 136.143 23.7234 136.143 31.7623V36.2453C136.143 39.0084 136.883 41.5944 138.166 43.7988C133.02 46.8984 129.122 51.9322 127.27 57.7945C122.883 52.3617 120.232 45.3511 120.232 37.7026C120.232 20.4958 133.629 6.49703 150.096 6.49703C156.29 6.49703 162.23 8.45993 167.275 12.1732C168.496 13.0725 170.182 12.7666 171.043 11.4906C171.903 10.2149 171.61 8.4524 170.389 7.55346C164.429 3.16501 157.411 0.845703 150.096 0.845703C130.647 0.845703 114.824 17.3796 114.824 37.7026C114.824 39.2198 114.915 40.7151 115.086 42.1848C108.093 39.1655 100.666 37.5794 93.0656 37.5794C85.4954 37.5794 77.9817 39.1621 71.045 42.1841C71.2163 40.7147 71.3075 39.2198 71.3075 37.7026C71.3075 17.3796 55.4845 0.845703 36.0353 0.845703C16.5862 0.845703 0.763184 17.3796 0.763184 37.7026C0.763184 57.8887 16.8404 74.5594 36.0353 74.5594C37.4884 74.5594 38.9187 74.4592 40.3259 74.2799C37.4328 81.5298 35.9174 89.3828 35.9174 97.2951C35.9174 105.153 37.4779 113.144 40.3241 120.304C38.918 120.125 37.4869 120.03 36.0353 120.03C16.5862 120.031 0.763184 136.564 0.763184 156.888C0.763184 177.22 16.8314 193.744 36.0353 193.744C55.3493 193.744 71.3075 177.106 71.3075 156.888C71.3075 155.371 71.2173 153.876 71.0464 152.407C77.9828 155.428 85.4961 157.011 93.0656 157.011C100.635 157.011 108.148 155.428 115.085 152.407C114.914 153.876 114.824 155.371 114.824 156.888C114.824 177.223 130.887 193.744 150.096 193.744C169.303 193.744 185.368 177.227 185.368 156.888C185.368 136.564 169.545 120.031 150.096 120.031ZM141.552 31.7623C141.552 26.8396 145.384 22.8347 150.096 22.8347C154.807 22.8347 158.64 26.8396 158.64 31.7623V36.2453C158.64 41.168 154.807 45.1729 150.096 45.1729C145.384 45.1729 141.552 41.168 141.552 36.2453V31.7623ZM141.967 48.0829C144.258 49.8054 147.064 50.8242 150.096 50.8242C153.127 50.8242 155.933 49.8058 158.224 48.0837C163.58 50.8167 167.429 56.1651 168.443 62.2979C163.376 66.4343 157.009 68.9081 150.096 68.9081C143.183 68.9081 136.817 66.4343 131.75 62.2983C132.761 56.1651 136.609 50.8163 141.967 48.0829V48.0829ZM111.021 46.5887C112.914 47.3189 114.763 48.1677 116.561 49.125C120.064 60.3361 128.582 69.1006 139.169 72.7472C142.856 80.2944 144.805 88.7552 144.805 97.2951C144.805 98.9875 144.728 100.677 144.577 102.357C139.793 104.337 129.679 108.034 127.092 105.111C126.075 103.963 126.738 101.438 127.905 97.4126C129.412 92.21 131.289 85.7359 129.299 78.2467C126.619 68.1542 118.566 63.1682 112.686 59.5276C108.932 57.2034 105.691 55.1964 105.791 53.2302C105.862 51.8576 107.299 49.3597 111.021 46.5887V46.5887ZM13.2103 57.7949C8.82306 52.3617 6.17153 45.3511 6.17153 37.7026C6.17153 20.4958 19.5684 6.49703 36.0353 6.49703C52.5023 6.49703 65.8991 20.4958 65.8991 37.7026C65.8991 45.3511 63.2476 52.3614 58.8607 57.7945C57.0089 51.9322 53.1109 46.8984 47.9651 43.7988C49.2483 41.5944 49.9878 39.0084 49.9878 36.2453V31.7623C49.9878 23.7234 43.7289 17.1833 36.0353 17.1833C28.3418 17.1833 22.0829 23.7234 22.0829 31.7623V36.2453C22.0829 39.0088 22.8227 41.5952 24.106 43.8C18.9615 46.8995 15.0636 51.933 13.2103 57.7949V57.7949ZM44.5794 31.7623V36.2453C44.5794 41.168 40.7467 45.1729 36.0353 45.1729C31.3239 45.1729 27.4912 41.168 27.4912 36.2453V31.7623C27.4912 26.8396 31.3239 22.8347 36.0353 22.8347C40.7467 22.8347 44.5794 26.8392 44.5794 31.7623ZM36.0353 68.9081C29.122 68.9081 22.7553 66.4339 17.6884 62.2979C18.7023 56.1651 22.5509 50.8167 27.9073 48.0837C30.1979 49.8058 33.0041 50.8242 36.0353 50.8242C39.0669 50.8242 41.8735 49.8054 44.1644 48.0829C49.5223 50.8159 53.3705 56.1651 54.3815 62.2983C49.315 66.4343 42.9483 68.9081 36.0353 68.9081V68.9081ZM36.0353 188.093C29.122 188.093 22.7553 185.619 17.6884 181.483C18.7027 175.348 22.5516 169.999 27.9087 167.27C30.1994 168.991 33.0049 170.009 36.0353 170.009C39.0658 170.009 41.8717 168.991 44.1623 167.269C49.5212 170.001 53.3698 175.349 54.3815 181.484C49.3146 185.619 42.9483 188.093 36.0353 188.093V188.093ZM27.4912 155.43V150.948C27.4912 146.025 31.3239 142.02 36.0353 142.02C40.7467 142.02 44.5794 146.025 44.5794 150.948V155.43C44.5794 160.353 40.7467 164.358 36.0353 164.358C31.3239 164.358 27.4912 160.353 27.4912 155.43ZM58.8607 176.98C57.0089 171.117 53.1106 166.084 47.964 162.986C49.2476 160.781 49.9878 158.194 49.9878 155.43V150.948C49.9878 142.908 43.7289 136.368 36.0353 136.368C28.3418 136.368 22.0829 142.908 22.0829 150.947V155.43C22.0829 158.194 22.8231 160.781 24.107 162.986C18.9615 166.083 15.0632 171.116 13.2099 176.98C8.82306 171.547 6.17153 164.536 6.17153 156.888C6.17153 139.681 19.5684 125.682 36.0353 125.682C52.5023 125.682 65.8991 139.681 65.8991 156.888C65.8991 164.536 63.2476 171.546 58.8607 176.98V176.98ZM116.558 145.47C109.335 149.323 101.238 151.359 93.0656 151.359C84.8929 151.359 76.7962 149.323 69.5728 145.47C68.5633 142.24 67.1391 139.206 65.3641 136.435C71.7149 134.742 76.4321 133.777 79.6515 135.161C82.0409 136.189 83.1186 137.704 84.3668 139.459C85.8429 141.535 87.5159 143.888 91.1402 145.136C92.832 145.72 94.408 145.948 95.9227 145.948C98.5453 145.948 100.983 145.263 103.508 144.554C105.213 144.075 106.976 143.58 109.024 143.2C111.751 142.69 114.599 142.545 117.524 142.75C117.168 143.639 116.847 144.547 116.558 145.47V145.47ZM108.075 137.636C105.799 138.059 103.836 138.61 102.104 139.096C98.3791 140.142 95.9194 140.833 92.8341 139.769C90.8352 139.081 89.9425 137.826 88.7072 136.088C87.2725 134.071 85.4867 131.559 81.7074 129.934C76.1032 127.524 68.9859 129.694 61.633 131.557C57.6366 127.15 52.6115 123.772 46.9642 121.844C45.0089 117.841 43.5399 113.583 42.5949 109.189C46.5207 110.723 51.5508 112.198 57.3186 112.198C59.1037 112.198 61.0695 111.538 61.0039 109.271C60.9588 107.712 59.7109 106.481 58.2189 106.532C51.4094 106.74 45.6903 104.502 41.5868 102.674C41.4163 100.889 41.3254 99.0937 41.3254 97.2947C41.3254 88.7548 43.2746 80.294 46.9616 72.7468C55.3056 69.8752 62.5337 63.6885 66.8131 55.6874C73.9586 55.9775 79.4002 57.8318 80.2904 60.3629C80.7036 61.5387 80.0055 63.0556 78.8326 65.434C77.2285 68.6865 75.2321 72.734 76.4544 78.0124C77.3868 82.0482 79.6691 84.1652 81.3349 85.711C82.7613 87.0342 83.4532 87.7263 83.6035 88.9899C84.1278 93.3893 77.8191 100.027 69.54 103.787C68.1703 104.409 67.5425 106.073 68.1378 107.504C68.74 108.953 70.3531 109.579 71.6958 108.97C76.4706 106.801 80.8334 103.73 83.9803 100.323C87.7027 96.2929 89.428 92.1324 88.9704 88.2925C88.5626 84.8591 86.546 82.9882 84.9257 81.4849C83.4878 80.1508 82.246 78.9987 81.711 76.6847C80.9624 73.4517 82.263 70.8148 83.6399 68.0235C85.0371 65.191 86.6203 61.9811 85.367 58.4147C84.2987 55.3769 81.5411 53.1119 77.1712 51.6817C74.5597 50.8268 71.7437 50.3894 69.2245 50.1766C69.3453 49.8273 69.4607 49.475 69.5714 49.1209C76.7955 45.2674 84.8925 43.2307 93.0656 43.2307C97.0184 43.2307 100.952 43.7118 104.78 44.6386C102.056 47.3569 100.53 50.2052 100.391 52.9299C100.116 58.3141 104.883 61.2652 109.929 64.39C115.582 67.8901 121.99 71.8573 124.088 79.7586C125.658 85.668 124.102 91.0376 122.729 95.7753C121.299 100.707 119.949 105.366 123.122 108.949C124.81 110.856 127.266 111.813 130.588 111.813C133.99 111.813 138.304 110.804 143.623 108.789C142.682 113.325 141.181 117.72 139.166 121.845C131.253 124.546 124.563 130.097 120.212 137.332C116.034 136.809 111.959 136.911 108.075 137.636V137.636ZM150.096 188.093C143.183 188.093 136.817 185.619 131.75 181.484C132.761 175.349 136.61 170.001 141.969 167.269C144.26 168.991 147.065 170.009 150.096 170.009C153.126 170.009 155.932 168.991 158.222 167.27C163.58 169.999 167.429 175.348 168.443 181.483C163.376 185.619 157.009 188.093 150.096 188.093V188.093ZM141.552 155.43V150.948C141.552 146.025 145.384 142.02 150.096 142.02C154.807 142.02 158.64 146.025 158.64 150.948V155.43C158.64 160.353 154.807 164.358 150.096 164.358C145.384 164.358 141.552 160.353 141.552 155.43ZM172.921 176.98C171.068 171.116 167.17 166.083 162.024 162.986C163.308 160.781 164.048 158.194 164.048 155.43V150.947C164.048 142.908 157.789 136.368 150.096 136.368C142.402 136.368 136.143 142.908 136.143 150.947V155.43C136.143 158.194 136.883 160.781 138.167 162.985C133.021 166.083 129.122 171.117 127.271 176.979C122.884 171.546 120.232 164.536 120.232 156.887C120.232 139.68 133.629 125.682 150.096 125.682C166.563 125.682 179.96 139.681 179.96 156.888C179.96 164.536 177.308 171.547 172.921 176.98V176.98ZM11.957 77.3037C10.4924 76.9948 9.06716 77.9871 8.77294 79.5168C8.52812 80.7891 8.30674 82.0874 8.11493 83.3755C7.88525 84.9175 8.89553 86.362 10.3709 86.602C11.8139 86.8371 13.2273 85.7984 13.4587 84.2443C13.6386 83.0379 13.846 81.8217 14.0749 80.6304C14.3695 79.1004 13.4212 77.6111 11.957 77.3037V77.3037ZM10.3172 107.483C8.84037 107.714 7.8218 109.153 8.04282 110.696C8.2267 111.982 8.44087 113.281 8.67848 114.558C8.96584 116.1 10.412 117.085 11.8492 116.792C13.3152 116.494 14.2725 115.011 13.9869 113.479C13.7641 112.282 13.5637 111.065 13.3913 109.86C13.1706 108.317 11.7966 107.255 10.3172 107.483V107.483Z" fill="white" stroke="black" stroke-width="1.4" mask="url(#path-1-inside-1)"/>
</svg>
