<svg xmlns="http://www.w3.org/2000/svg" viewBox="0 0 662.92 660.51"><defs><style>.cls-1{fill:#454545;}</style></defs><g id="Layer_2" data-name="Layer 2"><g id="Layer_1-2" data-name="Layer 1"><g id="Layer_2-2" data-name="Layer 2"><g id="Layer_1-2-2" data-name="Layer 1-2"><path class="cls-1" d="M330.35,161A169.37,169.37,0,1,0,499.72,330.34h0A169.37,169.37,0,0,0,330.35,161Zm0,279.27A109.91,109.91,0,1,1,440.86,330.34,109.91,109.91,0,0,1,330.35,440.25ZM546.56,153.77a39.64,39.64,0,1,1-39.64-39.64h0A39.64,39.64,0,0,1,546.56,153.77ZM660.67,194A195.76,195.76,0,0,0,607.22,55.88,197,197,0,0,0,466.68,0H194A196.38,196.38,0,0,0,55.89,55.28,196.41,196.41,0,0,0,0,194V466.67A195.84,195.84,0,0,0,53.49,604.81a197,197,0,0,0,138.13,53.45c54.65,3,218,3,272.66,0A190.76,190.76,0,0,0,660.67,466.67C663.67,412,663.67,248.66,660.67,194ZM588,524.93A111.68,111.68,0,0,1,527.94,585,727.81,727.81,0,0,1,330.35,600.6a733.58,733.58,0,0,1-194.58-13.21,111.68,111.68,0,0,1-60.06-60.06,727.86,727.86,0,0,1-15.62-197A734,734,0,0,1,73.3,135.76,111.75,111.75,0,0,1,133.36,75.7a727.89,727.89,0,0,1,197-15.62A734.08,734.08,0,0,1,524.94,73.29,111.75,111.75,0,0,1,585,133.35a727.89,727.89,0,0,1,15.61,197A727.67,727.67,0,0,1,588,524.93Z"/></g></g></g></g></svg>