<svg xmlns="http://www.w3.org/2000/svg" viewBox="0 0 808.02 568.34"><defs><style>.cls-1{fill:#454545;fill-rule:evenodd;}</style></defs><g id="Layer_2" data-name="Layer 2"><g id="Layer_1-2" data-name="Layer 1"><path class="cls-1" d="M799.77,122.62s-7.89-55.7-32.17-80.15c-30.76-32.17-65.2-32.38-81-34.24C573.66,0,404,0,404,0h-.3S234.05,0,121,8.23c-15.81,1.92-50.21,2.06-81,34.24C15.76,66.92,8,122.62,8,122.62S0,188,0,253.47v61.24c0,65.36,8,130.85,8,130.85s7.89,55.69,32,80.19c30.75,32.17,71.16,31.12,89.2,34.55,64.69,6.18,274.78,8,274.78,8S573.87,568,686.86,560c15.8-1.86,50.19-2.06,80.95-34.24C792.1,501.27,800,445.51,800,445.51s8-65.35,8-130.85V253.42c-.17-65.36-8.21-130.85-8.21-130.85ZM320.27,389V161.93L538.55,275.85Z"/></g></g></svg>